<svg width="17" height="20" viewBox="0 0 17 20" fill="none" xmlns="http://www.w3.org/2000/svg">
<g clip-path="url(#clip0_449_344)">
<path d="M1 3.33341C1 2.41294 1.74619 1.66675 2.66667 1.66675H10.8274C10.9379 1.66675 11.0439 1.71065 11.122 1.78879L15.878 6.54471C15.9561 6.62285 16 6.72883 16 6.83934V16.6668C16 17.5872 15.2538 18.3334 14.3333 18.3334H2.66667C1.74619 18.3334 1 17.5872 1 16.6668V3.33341Z" fill="#1B467B"/>
<path fill-rule="evenodd" clip-rule="evenodd" d="M2.66667 2.29175C2.09137 2.29175 1.625 2.75812 1.625 3.33341V16.6668C1.625 17.2421 2.09137 17.7084 2.66667 17.7084H14.3333C14.9086 17.7084 15.375 17.2421 15.375 16.6668V6.92563L10.7411 2.29175H2.66667ZM0.375 3.33341C0.375 2.06776 1.40101 1.04175 2.66667 1.04175H10.8274C11.1037 1.04175 11.3686 1.15149 11.564 1.34684L16.3199 6.10277C16.5153 6.29812 16.625 6.56307 16.625 6.83934V16.6668C16.625 17.9324 15.599 18.9584 14.3333 18.9584H2.66667C1.40101 18.9584 0.375 17.9324 0.375 16.6668V3.33341Z" fill="#1B467B"/>
<path d="M15.8577 6.52448L11.1423 1.809C11.0898 1.7565 11 1.79368 11 1.86792V6.58341C11 6.62943 11.0373 6.66674 11.0833 6.66674H15.7988C15.8731 6.66674 15.9102 6.57698 15.8577 6.52448Z" fill="#F1F1FF"/>
<path fill-rule="evenodd" clip-rule="evenodd" d="M10.375 1.86795C10.375 1.2369 11.138 0.920863 11.5842 1.36709L16.2997 6.08257C16.7459 6.5288 16.4299 7.29177 15.7988 7.29177H11.0833C10.6921 7.29177 10.375 6.97464 10.375 6.58344V1.86795ZM11.625 3.17565V6.04177H14.4911L11.625 3.17565Z" fill="#1B467B"/>
</g>
<defs>
<clipPath id="clip0_449_344">
<rect width="16" height="20" fill="white" transform="translate(0.5)"/>
</clipPath>
</defs>
</svg>
