<svg width="40" height="40" viewBox="0 0 40 40" fill="none" xmlns="http://www.w3.org/2000/svg">
<path d="M38.91 13.824C38.91 20.1548 34.7938 25.5017 29.1598 27.1839C27.9778 27.5369 26.8942 26.5665 26.8942 25.3329V2.31503C26.8942 1.0814 27.9778 0.111003 29.1599 0.463899C34.7938 2.14586 38.91 7.49141 38.91 13.824Z" fill="white"/>
<path d="M13.4481 0C19.6317 0 24.8504 4.26578 26.4644 10.0935C26.7924 11.2775 25.8237 12.3518 24.5951 12.3518H2.30105C1.07244 12.3518 0.103754 11.2775 0.431627 10.0935C2.04536 4.26577 7.26272 0 13.4481 0Z" fill="white"/>
<path d="M1.08997 26.1757C1.08997 19.8449 5.20619 14.498 10.8402 12.8157C12.0222 12.4628 13.1058 13.4331 13.1058 14.6668V37.6846C13.1058 38.9183 12.0222 39.8887 10.8401 39.5358C5.20619 37.8538 1.08997 32.5083 1.08997 26.1757Z" fill="white"/>
<path d="M26.5519 39.9999C20.3683 39.9999 15.1496 35.7341 13.5356 29.9063C13.2076 28.7223 14.1763 27.648 15.4049 27.648H37.6989C38.9276 27.648 39.8962 28.7223 39.5684 29.9064C37.9546 35.7341 32.7373 39.9999 26.5519 39.9999Z" fill="white"/>
</svg>
