<svg width="169" height="19" viewBox="0 0 169 19" fill="none" xmlns="http://www.w3.org/2000/svg">
<path d="M7.69802 1.20246L0 18.6958H4.78602L10.0946 5.39706H10.2514L15.5362 18.6958H20.5692L12.8712 1.20246H7.69802Z" fill="white"/>
<path d="M134.869 1.20246L127.171 18.6958H131.957L137.265 5.39706H137.422L142.709 18.6958H147.742L140.044 1.20246H134.869Z" fill="white"/>
<path d="M40.5258 3.00554V1.20039H23.7165V5.03871H32.7352L23.0087 16.891V18.6961H40.685V14.8554H30.7543L40.5258 3.00554Z" fill="white"/>
<path d="M47.7681 11.7011H56.459L56.9578 7.98871H47.7681V5.03871H58.9316L59.4303 1.20039H43.1222V18.6961H59.1121L59.6109 14.8554H47.7681V11.7011Z" fill="white"/>
<path d="M79.609 9.88391C80.0792 8.97658 80.3144 7.97187 80.3144 6.86978C80.3144 5.85319 80.1244 4.91499 79.7443 4.05992C79.3643 3.20485 78.8014 2.51367 78.058 1.98637C77.3145 1.46145 76.3716 1.19781 75.2338 1.19781H62.2059V18.6935H66.8304V12.8695H72.8444L75.4405 18.6935H80.6778L77.4903 12.0311C78.4309 11.5062 79.1387 10.7889 79.609 9.88391ZM75.0533 8.49679C74.7184 8.8697 74.2719 9.05496 73.709 9.05496H66.8304V5.0385H73.709C74.089 5.0385 74.4144 5.11451 74.6875 5.26652C74.9607 5.41853 75.1745 5.64418 75.3265 5.94108C75.4785 6.23798 75.5545 6.58951 75.5545 6.99567C75.5545 7.62272 75.3882 8.12388 75.0533 8.49679Z" fill="white"/>
<path d="M106.739 1.20039H102.114V18.6961H106.739V1.20039Z" fill="white"/>
<path d="M114.668 1.20039H110.043V18.6961H124.734V14.5253H114.668V1.20039Z" fill="white"/>
<path d="M164.21 1.20039V7.70844H154.804V1.20039H150.179V18.6961H154.804V11.8793H162.447H164.21V18.6961H168.834V1.20039H164.21Z" fill="white"/>
<path d="M97.7386 9.32339C97.1471 8.92435 96.4821 8.60845 95.7458 8.37093C95.0094 8.13341 94.2423 7.94815 93.4442 7.81039C92.6461 7.675 91.8789 7.55624 91.1426 7.45411C90.4063 7.35197 89.7413 7.24271 89.1498 7.12395C88.5584 7.00519 88.0857 6.84843 87.7366 6.65366C87.3874 6.4589 87.214 6.19288 87.214 5.85322C87.214 5.58245 87.3494 5.34018 87.625 5.12879C87.8981 4.9174 88.3233 4.74638 88.9004 4.6205C89.4776 4.49223 90.2139 4.4281 91.1094 4.4281C91.8528 4.4281 92.487 4.50886 93.0119 4.67037C93.5344 4.83189 93.924 5.06228 94.2066 5.33068C94.3373 5.46369 94.4347 5.6062 94.5035 5.75821C94.513 5.77959 94.5202 5.80334 94.5297 5.82472C94.551 5.87698 94.5677 5.9316 94.5795 5.98861C94.5843 6.00761 94.589 6.02661 94.5938 6.04561C94.608 6.124 94.6175 6.20238 94.6175 6.28551V6.48978H99.1043C99.1043 6.48978 99.1375 6.09074 99.071 5.5397C99.0639 5.48269 99.0544 5.42806 99.0473 5.37106C99.033 5.2808 99.0164 5.18817 98.9974 5.09316C98.976 4.98865 98.9523 4.88177 98.9238 4.77963C98.9119 4.73688 98.8953 4.69175 98.881 4.649C98.843 4.53024 98.805 4.4091 98.7575 4.29509C98.6934 4.13833 98.615 3.98157 98.5247 3.82955C98.1376 3.17638 97.5818 2.63483 96.8621 2.20254C96.1424 1.77026 95.2755 1.44486 94.266 1.22396C93.2566 1.00307 92.1283 0.89381 90.8837 0.89381C89.6391 0.89381 88.5442 1.00069 87.5133 1.21209C86.4801 1.42348 85.5847 1.75126 84.8246 2.19067C84.0645 2.63245 83.4779 3.18588 83.0598 3.85806C82.6418 4.52786 82.4328 5.3283 82.4328 6.26176C82.4328 7.19521 82.6062 7.95765 82.9577 8.60133C83.3068 9.24501 83.7771 9.7723 84.3686 10.1785C84.9624 10.5846 85.6298 10.9124 86.3732 11.157C87.1167 11.4017 87.8839 11.5988 88.6724 11.7413C89.461 11.8862 90.2234 12.0074 90.9621 12.1119C91.6984 12.214 92.3659 12.328 92.9668 12.4539C93.5677 12.5822 94.038 12.7508 94.38 12.9622C94.722 13.1736 94.8931 13.4586 94.8931 13.8125C94.8931 14.0857 94.8147 14.3089 94.6532 14.4871C94.494 14.6652 94.2731 14.8148 93.9929 14.9312C93.7102 15.05 93.3967 15.1379 93.0475 15.1973C92.6984 15.2566 92.3373 15.2994 91.9668 15.3255C91.5939 15.3516 91.2329 15.3635 90.8837 15.3635C90.0168 15.3635 89.2662 15.3041 88.6297 15.1854C87.9931 15.0666 87.4943 14.86 87.138 14.5631C86.8981 14.3564 86.7675 14.1189 86.6915 13.8885C86.6749 13.8386 86.6582 13.7911 86.6464 13.7389C86.6392 13.708 86.6345 13.6795 86.6297 13.6486C86.6131 13.5465 86.6012 13.442 86.6012 13.3303C86.6012 13.2472 86.606 13.1688 86.6131 13.1023C86.6202 13.0334 86.6321 12.9669 86.6464 12.8981H82.0907C82.0741 12.9479 82.067 13.0002 82.067 13.0501V13.1641C82.0527 13.4776 82.0694 14.0429 82.2309 14.7032C82.2428 14.7507 82.2523 14.7982 82.2641 14.8433C82.295 14.9597 82.3354 15.0761 82.3781 15.1949C82.485 15.5108 82.6109 15.8101 82.7748 16.0761C83.2285 16.848 83.8983 17.4323 84.7343 17.8551C85.5704 18.2803 86.5419 18.5772 87.6487 18.7458C88.7579 18.9144 89.9503 18.9999 91.2258 18.9999C92.867 18.9999 94.3206 18.8052 95.589 18.4133C96.8573 18.0237 97.8549 17.3967 98.5841 16.5321C99.3133 15.6675 99.6767 14.5322 99.6767 13.1261C99.6767 12.2283 99.5009 11.4682 99.1518 10.8506C98.8026 10.2331 98.3324 9.7248 97.7386 9.32576V9.32339Z" fill="white"/>
</svg>
