<svg width="40" height="40" viewBox="0 0 40 40" fill="none" xmlns="http://www.w3.org/2000/svg">
<path d="M11.3343 0H2C0.895431 0 0 0.895432 0 2V11.3344C0 12.4389 0.895432 13.3344 2 13.3344H11.3343C12.4389 13.3344 13.3343 12.4389 13.3343 11.3344V2C13.3343 0.89543 12.4389 0 11.3343 0Z" fill="white"/>
<path d="M38 0H28.6656C27.5611 0 26.6656 0.895432 26.6656 2V11.3344C26.6656 12.4389 27.5611 13.3344 28.6657 13.3344H38C39.1046 13.3344 40 12.4389 40 11.3344V2C40 0.89543 39.1046 0 38 0Z" fill="white"/>
<path d="M11.3343 26.6656H2C0.895431 26.6656 0 27.5611 0 28.6657V38C0 39.1046 0.895432 40 2 40H11.3343C12.4389 40 13.3343 39.1046 13.3343 38V28.6656C13.3343 27.5611 12.4389 26.6656 11.3343 26.6656Z" fill="white"/>
<path d="M38 26.6656H28.6656C27.5611 26.6656 26.6656 27.5611 26.6656 28.6657V38C26.6656 39.1046 27.5611 40 28.6657 40H38C39.1046 40 40 39.1046 40 38V28.6656C40 27.5611 39.1046 26.6656 38 26.6656Z" fill="white"/>
<path d="M24.6687 13.3314H15.3344C14.2298 13.3314 13.3344 14.2268 13.3344 15.3314V24.6657C13.3344 25.7703 14.2298 26.6657 15.3343 26.6657H24.6687C25.7733 26.6657 26.6687 25.7703 26.6687 24.6657V15.3314C26.6687 14.2268 25.7733 13.3314 24.6687 13.3314Z" fill="white"/>
</svg>
