<svg width="40" height="40" viewBox="0 0 40 40" fill="none" xmlns="http://www.w3.org/2000/svg">
<path d="M12.82 17.2085L4.53038 12.5157C2.51818 11.3769 -0.00012207 12.7997 -0.00012207 15.0803V24.4629C-0.00012207 26.7435 2.51818 28.1663 4.53038 27.0274L12.82 22.3347C14.8322 21.1959 14.8322 18.3443 12.82 17.2055V17.2085Z" fill="white"/>
<path d="M18.375 12.6264L18.6951 3.24684C18.7743 0.969204 16.3048 -0.537259 14.2561 0.535802L5.81093 4.95359C3.7591 6.02665 3.66154 8.87519 5.63715 10.0798L13.7622 15.0416C15.7347 16.2461 18.2987 14.9071 18.378 12.6264H18.375Z" fill="white"/>
<path d="M27.1798 22.3376L35.4694 27.0304C37.4816 28.1692 39.9999 26.7465 39.9999 24.4658V15.0833C39.9999 12.8026 37.4816 11.3799 35.4694 12.5187L27.1798 17.2114C25.1676 18.3503 25.1676 21.2018 27.1798 22.3406V22.3376Z" fill="white"/>
<path d="M21.5181 2.86738L21.198 12.247C21.1188 14.5246 23.5883 16.0311 25.637 14.958L34.0822 10.5402C36.134 9.46716 36.2316 6.61861 34.256 5.41403L26.1309 0.452246C24.1584 -0.752333 21.5944 0.586748 21.5151 2.86738H21.5181Z" fill="white"/>
<path d="M13.6005 25.0847L5.3109 29.7775C3.29871 30.9163 3.29871 33.7678 5.3109 34.9067L13.6005 39.5994C15.6127 40.7383 18.131 39.3155 18.131 37.0349V27.6523C18.131 25.3717 15.6127 23.9489 13.6005 25.0877V25.0847Z" fill="white"/>
<path d="M21.3535 27.6494V37.0319C21.3535 39.3125 23.8718 40.7353 25.884 39.5965L34.1736 34.9037C36.1858 33.7649 36.1858 30.9134 34.1736 29.7746L25.884 25.0818C23.8718 23.943 21.3535 25.3657 21.3535 27.6464V27.6494Z" fill="white"/>
</svg>
