<svg width="42" height="41" viewBox="0 0 42 41" fill="none" xmlns="http://www.w3.org/2000/svg">
<path fill-rule="evenodd" clip-rule="evenodd" d="M18.4928 23.3677V32.5518C13.8229 31.5204 10.1464 27.844 9.11487 23.1741H18.3012L13.0094 17.8262H9.11473C10.1461 13.1562 13.8227 9.47954 18.4928 8.44805V17.8258L23.8448 17.8299L23.8353 28.7669L18.4928 23.3677ZM18.4928 41V37.5256C15.7461 37.0977 13.2142 36.021 11.0587 34.4574L8.60775 36.9083L4.82626 33.1269L7.26662 30.6865C5.6719 28.5141 4.57418 25.9541 4.14104 23.1741H0.666748V17.8262H4.14096C4.56832 15.0828 5.64293 12.5535 7.20374 10.3996L4.80213 7.99794L8.58362 4.21645L10.9726 6.6054C13.1466 5.00763 15.7094 3.90787 18.4928 3.47425V0H23.8406V3.47425C26.6206 3.90734 29.1806 5.00504 31.353 6.59975L33.8176 4.13519L37.5991 7.91668L35.124 10.3918C36.6878 12.5474 37.7645 15.0795 38.1924 17.8262H41.6668V23.1741H38.1923C37.7587 25.9573 36.6589 28.52 35.0612 30.694L37.5751 33.2079L33.7936 36.9894L31.267 34.4628C29.1132 36.0236 26.584 37.0982 23.8406 37.5256V41H18.4928ZM23.8406 17.8262V8.44805C28.5106 9.47953 32.1872 13.1562 33.2186 17.8262H23.8406ZM23.8406 23.1741H33.2184C32.1869 27.844 28.5104 31.5204 23.8406 32.5518V23.1741Z" fill="white"/>
</svg>
